<svg width="256" height="256" viewBox="0 0 256 256" xmlns="http://www.w3.org/2000/svg">
  <!-- Background -->
  <circle cx="128" cy="128" r="120" fill="#f0f8ff"/>
  
  <!-- Fluffy body -->
  <ellipse cx="128" cy="160" rx="75" ry="50" fill="#ffffff" stroke="#333" stroke-width="3"/>
  <ellipse cx="100" cy="140" rx="25" ry="20" fill="#ffffff" stroke="#333" stroke-width="2"/>
  <ellipse cx="156" cy="140" rx="25" ry="20" fill="#ffffff" stroke="#333" stroke-width="2"/>
  <ellipse cx="90" cy="170" rx="22" ry="18" fill="#ffffff" stroke="#333" stroke-width="2"/>
  <ellipse cx="166" cy="170" rx="22" ry="18" fill="#ffffff" stroke="#333" stroke-width="2"/>
  <ellipse cx="128" cy="180" rx="28" ry="22" fill="#ffffff" stroke="#333" stroke-width="2"/>
  
  <!-- Head -->
  <ellipse cx="128" cy="90" rx="30" ry="24" fill="#f0e6e6" stroke="#333" stroke-width="3"/>
  
  <!-- Eyes -->
  <ellipse cx="115" cy="85" rx="5" ry="6" fill="white" stroke="#333" stroke-width="2"/>
  <ellipse cx="141" cy="85" rx="5" ry="6" fill="white" stroke="#333" stroke-width="2"/>
  <ellipse cx="115" cy="85" rx="2" ry="3" fill="#333"/>
  <ellipse cx="141" cy="85" rx="2" ry="3" fill="#333"/>
  
  <!-- Nose and mouth -->
  <ellipse cx="128" cy="97" rx="10" ry="6" fill="#ffc0cb" stroke="#333" stroke-width="2"/>
  <ellipse cx="123" cy="97" rx="2" ry="1" fill="#333"/>
  <ellipse cx="133" cy="97" rx="2" ry="1" fill="#333"/>
  
  <!-- Ears -->
  <path d="M103 75 Q 90 60 95 50 Q 100 45 110 55 Q 115 60 112 70 Z" fill="#f0e6e6" stroke="#333" stroke-width="2"/>
  <path d="M153 75 Q 166 60 161 50 Q 156 45 146 55 Q 141 60 144 70 Z" fill="#f0e6e6" stroke="#333" stroke-width="2"/>
  
  <!-- Legs -->
  <rect x="100" y="195" width="12" height="35" rx="5" fill="#f0e6e6" stroke="#333" stroke-width="2"/>
  <rect x="144" y="195" width="12" height="35" rx="5" fill="#f0e6e6" stroke="#333" stroke-width="2"/>
  <rect x="115" y="195" width="12" height="35" rx="5" fill="#f0e6e6" stroke="#333" stroke-width="2"/>
  <rect x="129" y="195" width="12" height="35" rx="5" fill="#f0e6e6" stroke="#333" stroke-width="2"/>
  
  <!-- Tail -->
  <path d="M185 150 Q 195 140 200 130 Q 205 120 200 110" fill="none" stroke="#333" stroke-width="2"/>
</svg>
