<svg width="320" height="240" xmlns="http://www.w3.org/2000/svg">
  <!-- Background -->
  <rect width="320" height="240" fill="#e8f5e9"/>
  
  <!-- Title -->
  <text x="160" y="25" text-anchor="middle" font-family="Arial, sans-serif" font-size="18" font-weight="bold" fill="#1976d2">๐๏ธ ุณุจุงู ุงููุณูุฑ ุงูุนุดุฑูุฉ</text>
  
  <!-- Track background -->
  <rect x="20" y="80" width="280" height="80" fill="#8e24aa" rx="5"/>
  
  <!-- Track lanes -->
  <g stroke="white" stroke-width="2" stroke-dasharray="8,8" fill="none">
    <line x1="20" y1="95" x2="300" y2="95"/>
    <line x1="20" y1="120" x2="300" y2="120"/>
    <line x1="20" y1="145" x2="300" y2="145"/>
  </g>
  
  <!-- Finish line -->
  <g stroke="#4caf50" stroke-width="4" fill="none">
    <line x1="270" y1="80" x2="270" y2="160"/>
  </g>
  
  <!-- Checkered flag pattern at finish -->
  <g fill="#000">
    <rect x="275" y="70" width="6" height="4"/>
    <rect x="281" y="74" width="6" height="4"/>
    <rect x="275" y="78" width="6" height="4"/>
  </g>
  <g fill="#fff">
    <rect x="281" y="70" width="6" height="4"/>
    <rect x="275" y="74" width="6" height="4"/>
    <rect x="281" y="78" width="6" height="4"/>
  </g>
  
  <!-- Racing car -->
  <g transform="translate(120,120)">
    <!-- Car body -->
    <rect x="-15" y="-8" width="30" height="16" fill="#ff6b35" rx="4"/>
    <!-- Car wheels -->
    <circle cx="-8" cy="8" r="4" fill="#333"/>
    <circle cx="8" cy="8" r="4" fill="#333"/>
    <!-- Speed lines -->
    <g stroke="#ffeb3b" stroke-width="2" fill="none">
      <line x1="-25" y1="-3" x2="-30" y2="-3"/>
      <line x1="-20" y1="0" x2="-25" y2="0"/>
      <line x1="-25" y1="3" x2="-30" y2="3"/>
    </g>
  </g>
  
  <!-- Progress indicator -->
  <rect x="20" y="170" width="280" height="10" fill="#e0e0e0" rx="5"/>
  <rect x="20" y="170" width="140" height="10" fill="#2196f3" rx="5"/>
  <text x="160" y="198" text-anchor="middle" font-family="Arial, sans-serif" font-size="12" fill="#666">50% ุชูุฏู</text>
  
  <!-- Question example -->
  <g transform="translate(160,45)">
    <rect x="-80" y="-15" width="160" height="25" fill="#fff" stroke="#ddd" stroke-width="1" rx="3"/>
    <text x="0" y="-2" text-anchor="middle" font-family="Arial, sans-serif" font-size="12" fill="#333">ูู ุงูุนุฏุฏ 3.47ุ ุงูุฑูู 4 ูู ุฎุงูุฉุ</text>
    <text x="0" y="12" text-anchor="middle" font-family="Arial, sans-serif" font-size="10" fill="#666">ุงูุนูุดุฑ | ุงููุฆุฉ | ุงูุขุญุงุฏ</text>
  </g>
  
  <!-- Score display -->
  <g transform="translate(50,210)">
    <circle cx="0" cy="0" r="15" fill="#4caf50"/>
    <text x="0" y="4" text-anchor="middle" font-family="Arial, sans-serif" font-size="12" fill="white" font-weight="bold">75</text>
    <text x="0" y="25" text-anchor="middle" font-family="Arial, sans-serif" font-size="10" fill="#666">ุงูููุงุท</text>
  </g>
  
  <!-- Timer -->
  <g transform="translate(270,210)">
    <circle cx="0" cy="0" r="15" fill="#ff9800"/>
    <text x="0" y="4" text-anchor="middle" font-family="Arial, sans-serif" font-size="12" fill="white" font-weight="bold">45</text>
    <text x="0" y="25" text-anchor="middle" font-family="Arial, sans-serif" font-size="10" fill="#666">ุซุงููุฉ</text>
  </g>
</svg>
