<svg width="320" height="240" xmlns="http://www.w3.org/2000/svg">
  <!-- Background -->
  <rect width="320" height="240" fill="#fff8e1"/>
  
  <!-- Title -->
  <text x="160" y="25" text-anchor="middle" font-family="Arial, sans-serif" font-size="20" font-weight="bold" fill="#1976d2">📊 مقارنة الكسور</text>
  
  <!-- Left Pie Chart (1/3) -->
  <g transform="translate(100,120)">
    <!-- Background circle -->
    <circle cx="0" cy="0" r="40" fill="#ffe082" stroke="#8d6e63" stroke-width="2"/>
    <!-- Filled slice (1/3) -->
    <path d="M 0,0 L 0,-40 A 40,40 0 0,1 34.64,-20 Z" fill="#ff6b35"/>
    <!-- Dividers -->
    <line x1="0" y1="0" x2="0" y2="-40" stroke="#8d6e63" stroke-width="2"/>
    <line x1="0" y1="0" x2="34.64" y2="-20" stroke="#8d6e63" stroke-width="2"/>
    <line x1="0" y1="0" x2="34.64" y2="20" stroke="#8d6e63" stroke-width="2"/>
  </g>
  
  <!-- Comparison Symbol -->
  <text x="160" y="130" text-anchor="middle" font-family="Arial, sans-serif" font-size="30" font-weight="bold" fill="#666">&gt;</text>
  
  <!-- Right Pie Chart (1/4) -->
  <g transform="translate(220,120)">
    <!-- Background circle -->
    <circle cx="0" cy="0" r="40" fill="#ffe082" stroke="#8d6e63" stroke-width="2"/>
    <!-- Filled slice (1/4) -->
    <path d="M 0,0 L 0,-40 A 40,40 0 0,1 40,0 Z" fill="#ff6b35"/>
    <!-- Dividers -->
    <line x1="0" y1="0" x2="0" y2="-40" stroke="#8d6e63" stroke-width="2"/>
    <line x1="0" y1="0" x2="40" y2="0" stroke="#8d6e63" stroke-width="2"/>
    <line x1="0" y1="0" x2="0" y2="40" stroke="#8d6e63" stroke-width="2"/>
    <line x1="0" y1="0" x2="-40" y2="0" stroke="#8d6e63" stroke-width="2"/>
  </g>
  
  <!-- Fraction labels -->
  <text x="100" y="180" text-anchor="middle" font-family="Arial, sans-serif" font-size="16" font-weight="bold" fill="#1976d2">1/3</text>
  <text x="220" y="180" text-anchor="middle" font-family="Arial, sans-serif" font-size="16" font-weight="bold" fill="#1976d2">1/4</text>
  
  <!-- Small ordering example at bottom -->
  <g transform="translate(160,200)">
    <!-- Small pie 1 -->
    <g transform="translate(-60,0)">
      <circle cx="0" cy="0" r="15" fill="#ffe082" stroke="#8d6e63" stroke-width="1"/>
      <path d="M 0,0 L 0,-15 A 15,15 0 0,1 15,0 Z" fill="#ff6b35"/>
      <text x="0" y="25" text-anchor="middle" font-family="Arial, sans-serif" font-size="10" fill="#666">1/4</text>
    </g>
    
    <!-- Arrow -->
    <text x="-30" y="5" text-anchor="middle" font-family="Arial, sans-serif" font-size="12" fill="#666">&lt;</text>
    
    <!-- Small pie 2 -->
    <g transform="translate(0,0)">
      <circle cx="0" cy="0" r="15" fill="#ffe082" stroke="#8d6e63" stroke-width="1"/>
      <path d="M 0,0 L 0,-15 A 15,15 0 0,1 13,-7.5 Z" fill="#ff6b35"/>
      <text x="0" y="25" text-anchor="middle" font-family="Arial, sans-serif" font-size="10" fill="#666">1/3</text>
    </g>
    
    <!-- Arrow -->
    <text x="30" y="5" text-anchor="middle" font-family="Arial, sans-serif" font-size="12" fill="#666">&lt;</text>
    
    <!-- Small pie 3 -->
    <g transform="translate(60,0)">
      <circle cx="0" cy="0" r="15" fill="#ffe082" stroke="#8d6e63" stroke-width="1"/>
      <path d="M 0,0 L 0,-15 A 15,15 0 0,1 0,15 Z" fill="#ff6b35"/>
      <text x="0" y="25" text-anchor="middle" font-family="Arial, sans-serif" font-size="10" fill="#666">1/2</text>
    </g>
  </g>
</svg>
